<svg width="11" height="9" viewBox="0 0 11 9" fill="none" xmlns="http://www.w3.org/2000/svg">
<path d="M0 2.7342V7.2C0 7.67739 0.189642 8.13523 0.527208 8.47279C0.864773 8.81036 1.32261 9 1.8 9H9C9.47739 9 9.93523 8.81036 10.2728 8.47279C10.6104 8.13523 10.8 7.67739 10.8 7.2V1.8C10.8 1.32261 10.6104 0.864773 10.2728 0.527208C9.93523 0.189642 9.47739 0 9 0H1.8C1.32261 0 0.864773 0.189642 0.527208 0.527208C0.189642 0.864773 0 1.32261 0 1.8V2.7342ZM1.8 0.9H9C9.2387 0.9 9.46761 0.994821 9.6364 1.1636C9.80518 1.33239 9.9 1.56131 9.9 1.8V2.466L5.4 4.8888L0.9 2.466V1.8C0.9 1.56131 0.994821 1.33239 1.1636 1.1636C1.33239 0.994821 1.56131 0.9 1.8 0.9V0.9ZM0.9 3.4884L5.1867 5.796C5.25226 5.83129 5.32555 5.84976 5.4 5.84976C5.47445 5.84976 5.54774 5.83129 5.6133 5.796L9.9 3.4884V7.2C9.9 7.43869 9.80518 7.66761 9.6364 7.8364C9.46761 8.00518 9.2387 8.1 9 8.1H1.8C1.56131 8.1 1.33239 8.00518 1.1636 7.8364C0.994821 7.66761 0.9 7.43869 0.9 7.2V3.4884Z" fill="black"/>
</svg>
