<svg width="28" height="28" viewBox="0 0 28 28" fill="none" xmlns="http://www.w3.org/2000/svg">
<path d="M24.9818 15.0595C24.7748 14.87 24.657 14.6024 24.657 14.3218V13.6816C24.657 13.3932 24.7814 13.1189 24.9985 12.929L26.5824 11.543C26.9373 11.2302 27.1703 10.802 27.24 10.334C27.3097 9.86607 27.2118 9.38853 26.9635 8.98581L24.5968 4.97445C24.4209 4.66985 24.1681 4.41685 23.8636 4.24083C23.559 4.06482 23.2136 3.97197 22.8619 3.97161C22.6439 3.96994 22.4271 4.00381 22.2201 4.07189L20.2479 4.73741C19.9548 4.83632 19.6338 4.79162 19.369 4.63166C19.2176 4.54023 19.0642 4.45234 18.9087 4.36806C18.635 4.21965 18.4332 3.96309 18.3715 3.6579L17.958 1.61494C17.8663 1.15324 17.6151 0.738499 17.2485 0.443325C16.8818 0.148151 16.423 -0.00865068 15.9523 0.000368474H11.259C10.7884 -0.00865068 10.3296 0.148151 9.96292 0.443325C9.59624 0.738499 9.34507 1.15324 9.25336 1.61494L8.84026 3.65613C8.7783 3.96232 8.57547 4.21952 8.30036 4.36753C8.14584 4.45066 7.99325 4.53731 7.8427 4.62742C7.57192 4.78948 7.24335 4.83106 6.94656 4.72381L5.03141 4.03178C4.82211 3.97725 4.60538 3.95693 4.38959 3.97161C4.03787 3.97197 3.69243 4.06482 3.38792 4.24083C3.08341 4.41685 2.83054 4.66985 2.65468 4.97445L0.287982 8.98581C0.0539062 9.38793 -0.0330754 9.85893 0.0419346 10.3181C0.116944 10.7773 0.349279 11.1962 0.699146 11.5029L2.26971 12.9405C2.47666 13.13 2.59451 13.3976 2.59451 13.6782V14.3231C2.59451 14.6088 2.47236 14.8808 2.25888 15.0705L0.699146 16.457C0.339396 16.7658 0.100707 17.1922 0.0254372 17.6603C-0.0498327 18.1285 0.0431847 18.6081 0.287982 19.0142L2.65468 23.0256C2.83054 23.3302 3.08341 23.5831 3.38792 23.7592C3.69243 23.9352 4.03787 24.028 4.38959 24.0284C4.60756 24.0301 4.82434 23.9962 5.03141 23.9281L7.0036 23.2626C7.29673 23.1637 7.61772 23.2084 7.88252 23.3683C8.03387 23.4598 8.18733 23.5477 8.34277 23.6319C8.6165 23.7804 8.81826 24.0369 8.88002 24.3421L9.29348 26.3851C9.38518 26.8468 9.63635 27.2615 10.003 27.5567C10.3697 27.8518 10.8285 28.0086 11.2992 27.9996H16.0326C16.5032 28.0086 16.962 27.8518 17.3287 27.5567C17.6954 27.2615 17.9465 26.8468 18.0382 26.3851L18.4513 24.3439C18.5133 24.0377 18.7161 23.7805 18.9912 23.6325C19.1494 23.5474 19.3056 23.4586 19.4596 23.3662C19.7242 23.2074 20.0443 23.1637 20.3365 23.2627L22.3003 23.9281C22.5074 23.9962 22.7241 24.0301 22.9421 24.0284C23.2938 24.028 23.6393 23.9352 23.9438 23.7592C24.2483 23.5831 24.5012 23.3302 24.677 23.0256L26.9635 19.0142C27.1976 18.6121 27.2846 18.1411 27.2095 17.6819C27.1345 17.2227 26.9022 16.8038 26.5523 16.4971L24.9818 15.0595ZM23.2744 21.3235C23.034 21.7309 22.541 21.9142 22.0928 21.7626L19.9576 21.0405C19.6253 20.9281 19.261 21.0016 18.9795 21.2108C18.4365 21.6143 17.8492 21.9546 17.229 22.2249C16.9077 22.3649 16.6629 22.6441 16.5949 22.9879L16.1518 25.2281C16.0592 25.6965 15.6483 26.0341 15.1708 26.0341H12.0788C11.6022 26.0341 11.1917 25.6976 11.0983 25.2302L10.656 23.0188C10.5882 22.68 10.3487 22.4038 10.0329 22.2635C9.41121 21.9871 8.8214 21.644 8.27388 21.2402C7.99729 21.0362 7.64107 20.9641 7.31428 21.0705L5.15266 21.7743C4.70685 21.9194 4.22005 21.7354 3.98181 21.3315L2.44265 18.7228C2.199 18.3098 2.28276 17.7821 2.6423 17.4648L4.32893 15.9766C4.59077 15.7456 4.70886 15.3951 4.66923 15.0482C4.59196 14.3719 4.59232 13.6889 4.67029 13.0127C4.70971 12.6709 4.59597 12.3252 4.34122 12.0939L2.62558 10.5359C2.27459 10.2172 2.19566 9.69582 2.43658 9.28748L3.97704 6.67653C4.21745 6.26906 4.71051 6.08582 5.15868 6.23739L7.29392 6.95951C7.62616 7.07187 7.99045 6.99844 8.27194 6.78923C8.81495 6.38565 9.40229 6.04541 10.0225 5.77513C10.3438 5.63512 10.5886 5.35595 10.6566 5.01214L11.0996 2.77192C11.1923 2.30351 11.6032 1.96593 12.0806 1.96593H15.1726C15.6493 1.96593 16.0597 2.30239 16.1532 2.76982L16.5955 4.98116C16.6633 5.32 16.9028 5.59619 17.2186 5.73655C17.8403 6.01288 18.4301 6.35598 18.9776 6.75981C19.2542 6.96381 19.6104 7.03591 19.9372 6.92951L22.0988 6.22573C22.5446 6.08058 23.0314 6.26465 23.2697 6.66845L24.8088 9.27719C25.0525 9.69016 24.9687 10.2179 24.6092 10.5352L22.9226 12.0234C22.6607 12.2544 22.5426 12.6049 22.5823 12.9518C22.6595 13.6281 22.6592 14.3111 22.5812 14.9873C22.5418 15.3291 22.6555 15.6748 22.9103 15.9061L24.6259 17.4641C24.9769 17.7828 25.0558 18.3042 24.8149 18.7125L23.2744 21.3235Z" fill="black"/>
<path d="M13.6259 20.017C12.4359 20.017 11.2725 19.6641 10.283 19.0029C9.29354 18.3418 8.52232 17.402 8.06691 16.3026C7.61149 15.2031 7.49234 13.9933 7.72451 12.8261C7.95667 11.6589 8.52974 10.5868 9.37124 9.74526C10.2127 8.90376 11.2849 8.3307 12.4521 8.09853C13.6192 7.86636 14.8291 7.98552 15.9285 8.44093C17.028 8.89635 17.9677 9.66756 18.6289 10.6571C19.2901 11.6466 19.643 12.8099 19.643 13.9999C19.651 14.7924 19.5009 15.5784 19.2013 16.3121C18.9018 17.0457 18.4589 17.7122 17.8985 18.2726C17.3382 18.8329 16.6717 19.2758 15.938 19.5753C15.2044 19.8749 14.4183 20.025 13.6259 20.017ZM13.6259 9.98859C13.0958 9.97624 12.5686 10.0716 12.0764 10.2688C11.5841 10.466 11.1369 10.761 10.762 11.136C10.387 11.511 10.092 11.9581 9.89475 12.4504C9.69753 12.9426 9.60222 13.4698 9.61457 13.9999C9.60222 14.5301 9.69753 15.0573 9.89475 15.5495C10.092 16.0418 10.387 16.4889 10.762 16.8639C11.1369 17.2389 11.5841 17.5339 12.0764 17.7311C12.5686 17.9283 13.0958 18.0237 13.6259 18.0113C14.1561 18.0237 14.6832 17.9283 15.1755 17.7311C15.6678 17.5339 16.1149 17.2389 16.4899 16.8639C16.8649 16.4889 17.1599 16.0418 17.3571 15.5495C17.5543 15.0573 17.6496 14.5301 17.6373 13.9999C17.6496 13.4698 17.5543 12.9426 17.3571 12.4504C17.1599 11.9581 16.8649 11.511 16.4899 11.136C16.1149 10.761 15.6678 10.466 15.1755 10.2688C14.6832 10.0716 14.1561 9.97624 13.6259 9.98859Z" fill="black"/>
</svg>
