<svg width="28" height="28" viewBox="0 0 28 28" fill="none" xmlns="http://www.w3.org/2000/svg">
<path d="M14 0C6.2804 0 0 6.2804 0 14V19.8002C0 21.2338 1.2558 22.4 2.8 22.4H4.2C4.5713 22.4 4.9274 22.2525 5.18995 21.99C5.4525 21.7274 5.6 21.3713 5.6 21V13.7998C5.6 13.4285 5.4525 13.0724 5.18995 12.8098C4.9274 12.5473 4.5713 12.3998 4.2 12.3998H2.9288C3.7072 6.9818 8.3692 2.8 14 2.8C19.6308 2.8 24.2928 6.9818 25.0712 12.3998H23.8C23.4287 12.3998 23.0726 12.5473 22.81 12.8098C22.5475 13.0724 22.4 13.4285 22.4 13.7998V22.4C22.4 23.9442 21.1442 25.2 19.6 25.2H16.8V23.8H11.2V28H19.6C22.6884 28 25.2 25.4884 25.2 22.4C26.7442 22.4 28 21.2338 28 19.8002V14C28 6.2804 21.7196 0 14 0Z" fill="black"/>
</svg>
