<svg width="10" height="9" viewBox="0 0 10 9" fill="none" xmlns="http://www.w3.org/2000/svg">
<path d="M7.96484 9H7.90599C1.10407 8.60885 0.138297 2.86962 0.00329705 1.11808C-0.00758074 0.981893 0.00852005 0.844901 0.0506768 0.71495C0.0928336 0.584999 0.160218 0.464644 0.248968 0.36078C0.337719 0.256915 0.446092 0.171584 0.567878 0.109675C0.689663 0.0477661 0.822468 0.010496 0.958682 3.24551e-07H2.86599C3.00464 -0.000133901 3.14014 0.0413691 3.25494 0.119133C3.36973 0.196897 3.45853 0.30734 3.50984 0.436154L4.03599 1.73077C4.08665 1.85661 4.09922 1.99457 4.07214 2.12749C4.04507 2.26042 3.97953 2.38246 3.88368 2.47846L3.14637 3.22269C3.26155 3.87718 3.57498 4.4805 4.04426 4.95102C4.51355 5.42155 5.11604 5.73657 5.77022 5.85346L6.52137 5.10923C6.61881 5.01444 6.74201 4.95043 6.87559 4.92519C7.00917 4.89996 7.14722 4.9146 7.27253 4.96731L8.57753 5.49C8.7044 5.54292 8.81264 5.63242 8.88847 5.74708C8.9643 5.86174 9.00427 5.99638 9.0033 6.13385V7.96154C9.0033 8.23696 8.89389 8.50109 8.69914 8.69584C8.50439 8.89059 8.24025 9 7.96484 9ZM1.04176 0.692308C0.949953 0.692308 0.861907 0.728778 0.796991 0.793694C0.732074 0.858611 0.695605 0.946656 0.695605 1.03846V1.06615C0.854835 3.11539 1.87599 7.96154 7.94407 8.30769C7.98954 8.3105 8.03512 8.30431 8.0782 8.28946C8.12128 8.27462 8.161 8.25142 8.19509 8.22119C8.22918 8.19096 8.25696 8.15429 8.27685 8.1133C8.29674 8.07231 8.30834 8.02779 8.31099 7.98231V6.13385L7.00599 5.61115L6.01253 6.59769L5.84637 6.57692C2.83484 6.19962 2.42637 3.18808 2.42637 3.15692L2.4056 2.99077L3.38868 1.99731L2.86945 0.692308H1.04176Z" fill="black"/>
</svg>
