<svg width="9" height="11" viewBox="0 0 9 11" fill="none" xmlns="http://www.w3.org/2000/svg">
<path d="M4.6 5.95C5.34558 5.95 5.95 5.34558 5.95 4.6C5.95 3.85442 5.34558 3.25 4.6 3.25C3.85442 3.25 3.25 3.85442 3.25 4.6C3.25 5.34558 3.85442 5.95 4.6 5.95Z" stroke="black" stroke-linecap="round" stroke-linejoin="round"/>
<path d="M4.6 1C3.64522 1 2.72955 1.37928 2.05442 2.05442C1.37928 2.72955 1 3.64522 1 4.6C1 5.4514 1.1809 6.0085 1.675 6.625L4.6 10L7.525 6.625C8.0191 6.0085 8.2 5.4514 8.2 4.6C8.2 3.64522 7.82072 2.72955 7.14558 2.05442C6.47045 1.37928 5.55478 1 4.6 1V1Z" stroke="black" stroke-linecap="round" stroke-linejoin="round"/>
</svg>
