<svg width="159" height="38" viewBox="0 0 159 38" fill="none" xmlns="http://www.w3.org/2000/svg">
<path fill-rule="evenodd" clip-rule="evenodd" d="M24.357 0H12.1795C5.45294 0 0 5.45295 0 12.1795V18.2693C0 21.6325 2.7265 24.359 6.08975 24.359C9.45294 24.359 12.1794 21.6326 12.1794 18.2694C12.1794 14.9062 14.9058 12.1798 18.269 12.1798H24.3589C24.3589 12.1798 24.359 12.1797 24.359 12.1797V12.1796C24.359 12.1796 24.359 12.1795 24.3591 12.1795H30.4478C33.8105 12.1795 36.5365 9.45296 36.5365 6.09023C36.5365 2.72695 33.8101 0 30.4468 0H24.359H24.357Z" fill="#5CABF3"/>
<path d="M12.2933 13.581V18.2123C12.2933 21.607 9.54137 24.359 6.14666 24.359C2.75195 24.359 0 21.607 0 18.2123V12.1795C0 5.45294 5.45293 0 12.1795 0H26.3077C18.6637 0.695432 14.421 6.68865 12.8004 10.6217C12.4151 11.5568 12.2933 12.5697 12.2933 13.581Z" fill="url(#paint0_linear_4_320)"/>
<path fill-rule="evenodd" clip-rule="evenodd" d="M13.641 38L25.8205 38C32.5471 38 38 32.5471 38 25.8205L38 19.7307C38 16.3675 35.2735 13.641 31.9103 13.641C28.5471 13.641 25.8206 16.3674 25.8206 19.7306C25.8206 23.0938 23.0942 25.8202 19.731 25.8202L13.6411 25.8202C13.6411 25.8202 13.641 25.8203 13.641 25.8203L13.641 25.8204C13.641 25.8205 13.641 25.8205 13.6409 25.8205L7.55162 25.8205C4.18854 25.8205 1.46222 28.547 1.46222 31.9101C1.46222 35.2734 4.18869 38 7.55196 38L13.641 38Z" fill="#33DDCC"/>
<path d="M25.7067 24.419L25.7067 19.7877C25.7067 16.393 28.4586 13.641 31.8533 13.641C35.248 13.641 38 16.393 38 19.7877L38 25.8205C38 32.5471 32.5471 38 25.8205 38L11.6923 38C19.3363 37.3046 23.579 31.3113 25.1996 27.3783C25.5849 26.4432 25.7067 25.4303 25.7067 24.419Z" fill="url(#paint1_linear_4_320)"/>
<path d="M50.33 31L58.04 8.65H63.32L71.03 31H66.59L65 26.2H56.36L54.74 31H50.33ZM57.53 22.6H63.83L60.11 11.47H61.25L57.53 22.6ZM73.5174 31V8.65H77.5974V31H73.5174ZM87.2284 31V8.65H96.6484C98.1284 8.65 99.3884 8.91 100.428 9.43C101.488 9.93 102.298 10.65 102.858 11.59C103.438 12.51 103.728 13.63 103.728 14.95C103.728 15.97 103.448 16.93 102.888 17.83C102.348 18.71 101.478 19.44 100.278 20.02V18.13C101.378 18.55 102.248 19.07 102.888 19.69C103.528 20.31 103.978 21 104.238 21.76C104.498 22.52 104.628 23.32 104.628 24.16C104.628 26.3 103.918 27.98 102.498 29.2C101.098 30.4 99.1484 31 96.6484 31H87.2284ZM91.3084 27.4H97.0684C98.1284 27.4 98.9684 27.11 99.5884 26.53C100.228 25.93 100.548 25.14 100.548 24.16C100.548 23.18 100.228 22.39 99.5884 21.79C98.9684 21.19 98.1284 20.89 97.0684 20.89H91.3084V27.4ZM91.3084 17.32H96.8584C97.6984 17.32 98.3684 17.08 98.8684 16.6C99.3684 16.1 99.6184 15.46 99.6184 14.68C99.6184 13.9 99.3684 13.28 98.8684 12.82C98.3684 12.36 97.6984 12.13 96.8584 12.13H91.3084V17.32ZM112.591 31.36C111.451 31.36 110.461 31.17 109.621 30.79C108.781 30.41 108.131 29.87 107.671 29.17C107.211 28.45 106.981 27.62 106.981 26.68C106.981 25.78 107.181 24.98 107.581 24.28C107.981 23.56 108.601 22.96 109.441 22.48C110.281 22 111.341 21.66 112.621 21.46L117.961 20.59V23.59L113.371 24.37C112.591 24.51 112.011 24.76 111.631 25.12C111.251 25.48 111.061 25.95 111.061 26.53C111.061 27.09 111.271 27.54 111.691 27.88C112.131 28.2 112.671 28.36 113.311 28.36C114.131 28.36 114.851 28.19 115.471 27.85C116.111 27.49 116.601 27 116.941 26.38C117.301 25.76 117.481 25.08 117.481 24.34V20.14C117.481 19.44 117.201 18.86 116.641 18.4C116.101 17.92 115.381 17.68 114.481 17.68C113.641 17.68 112.891 17.91 112.231 18.37C111.591 18.81 111.121 19.4 110.821 20.14L107.611 18.58C107.931 17.72 108.431 16.98 109.111 16.36C109.811 15.72 110.631 15.22 111.571 14.86C112.511 14.5 113.531 14.32 114.631 14.32C115.971 14.32 117.151 14.57 118.171 15.07C119.191 15.55 119.981 16.23 120.541 17.11C121.121 17.97 121.411 18.98 121.411 20.14V31H117.691V28.21L118.531 28.15C118.111 28.85 117.611 29.44 117.031 29.92C116.451 30.38 115.791 30.74 115.051 31C114.311 31.24 113.491 31.36 112.591 31.36ZM125.043 31V14.68H128.733V17.89L128.433 17.32C128.813 16.34 129.433 15.6 130.293 15.1C131.173 14.58 132.193 14.32 133.353 14.32C134.553 14.32 135.613 14.58 136.533 15.1C137.473 15.62 138.203 16.35 138.723 17.29C139.243 18.21 139.503 19.28 139.503 20.5V31H135.573V21.43C135.573 20.71 135.433 20.09 135.153 19.57C134.873 19.05 134.483 18.65 133.983 18.37C133.503 18.07 132.933 17.92 132.273 17.92C131.633 17.92 131.063 18.07 130.563 18.37C130.063 18.65 129.673 19.05 129.393 19.57C129.113 20.09 128.973 20.71 128.973 21.43V31H125.043ZM142.826 31V8.29H146.756V23.17L145.256 22.72L152.936 14.68H157.826L151.796 21.25L157.946 31H153.446L148.106 22.54L150.446 22.06L145.526 27.34L146.756 24.94V31H142.826Z" fill="black"/>
<defs>
<linearGradient id="paint0_linear_4_320" x1="0" y1="0" x2="12.4231" y2="12.1795" gradientUnits="userSpaceOnUse">
<stop stop-color="#4980B4" stop-opacity="0"/>
<stop offset="1" stop-color="#4980B4"/>
</linearGradient>
<linearGradient id="paint1_linear_4_320" x1="38" y1="38" x2="25.5769" y2="25.8205" gradientUnits="userSpaceOnUse">
<stop stop-color="#279A8F" stop-opacity="0"/>
<stop offset="1" stop-color="#279A8F"/>
</linearGradient>
</defs>
</svg>
