<svg width="26" height="28" viewBox="0 0 26 28" fill="none" xmlns="http://www.w3.org/2000/svg">
<path d="M1.98786 5.49333L1.98786 5.49335L1.99265 5.49132L12.3402 1.12494C12.3407 1.12474 12.3411 1.12454 12.3416 1.12434C12.4893 1.06315 12.8026 1 12.954 1C13.1058 1 13.4239 1.06417 13.5671 1.12421L23.9553 5.48722C24.6296 5.79228 25 6.40433 25 6.98735C25 13.6687 22.5667 18.702 19.8005 22.0621C18.4144 23.7458 16.9503 25.0022 15.6785 25.8303C14.358 26.69 13.3816 27 12.9513 27C12.7938 27 12.4727 26.9423 11.9864 26.7472C11.517 26.5588 10.9515 26.2659 10.324 25.8596C9.06959 25.0474 7.61134 23.8106 6.22539 22.1409C3.4603 18.8097 1 13.7778 1 6.98735C1 6.32776 1.3943 5.74017 1.98786 5.49333Z" fill="black" stroke="black" stroke-width="2"/>
</svg>
