<svg width="1200" height="628" viewBox="0 0 1200 628" fill="none" xmlns="http://www.w3.org/2000/svg">
<rect width="1200" height="628" fill="#F8F8F8"/>
<rect width="1200" height="628" fill="url(#paint0_linear_196_527)"/>
<path fill-rule="evenodd" clip-rule="evenodd" d="M382.461 245H338.231C313.803 245 294 264.803 294 289.231V311.346C294 323.56 303.902 333.462 316.117 333.462C328.33 333.462 338.232 323.56 338.232 311.347C338.232 299.133 348.133 289.232 360.347 289.232H382.461C382.461 289.232 382.462 289.232 382.462 289.231C382.462 289.231 382.462 289.231 382.462 289.231H404.577C416.791 289.231 426.692 279.329 426.692 267.115C426.692 254.901 416.791 245 404.577 245H382.462H382.461Z" fill="#5CABF3"/>
<path d="M338.644 294.32V311.139C338.644 323.468 328.65 333.462 316.322 333.462C303.994 333.462 294 323.468 294 311.139V289.231C294 264.803 313.803 245 338.231 245H389.539C361.779 247.526 346.371 269.29 340.486 283.574C339.086 286.969 338.644 290.648 338.644 294.32Z" fill="url(#paint1_linear_196_527)"/>
<path fill-rule="evenodd" clip-rule="evenodd" d="M343.538 383L387.769 383C412.197 383 432 363.197 432 338.769L432 316.655C432 304.44 422.098 294.538 409.883 294.538C397.67 294.538 387.768 304.44 387.768 316.653C387.768 328.867 377.867 338.768 365.653 338.768L343.539 338.768C343.539 338.768 343.538 338.768 343.538 338.769C343.538 338.769 343.538 338.769 343.538 338.769L321.423 338.769C309.209 338.769 299.308 348.671 299.308 360.885C299.308 373.099 309.209 383 321.423 383L343.538 383Z" fill="#33DDCC"/>
<path d="M387.356 333.68L387.356 316.861C387.356 304.532 397.35 294.538 409.678 294.538C422.006 294.538 432 304.532 432 316.861L432 338.769C432 363.197 412.197 383 387.769 383L336.461 383C364.221 380.474 379.629 358.71 385.514 344.426C386.914 341.031 387.356 337.352 387.356 333.68Z" fill="url(#paint2_linear_196_527)"/>
<path d="M469.32 369L500.16 279.6H521.28L552.12 369H534.36L528 349.8H493.44L486.96 369H469.32ZM498.12 335.4H523.32L508.44 290.88H513L498.12 335.4ZM562.07 369V279.6H578.39V369H562.07ZM616.913 369V279.6H654.593C660.513 279.6 665.553 280.64 669.713 282.72C673.953 284.72 677.193 287.6 679.433 291.36C681.753 295.04 682.913 299.52 682.913 304.8C682.913 308.88 681.793 312.72 679.553 316.32C677.393 319.84 673.913 322.76 669.113 325.08V317.52C673.513 319.2 676.993 321.28 679.553 323.76C682.113 326.24 683.913 329 684.953 332.04C685.993 335.08 686.513 338.28 686.513 341.64C686.513 350.2 683.673 356.92 677.993 361.8C672.393 366.6 664.593 369 654.593 369H616.913ZM633.233 354.6H656.273C660.513 354.6 663.873 353.44 666.353 351.12C668.913 348.72 670.193 345.56 670.193 341.64C670.193 337.72 668.913 334.56 666.353 332.16C663.873 329.76 660.513 328.56 656.273 328.56H633.233V354.6ZM633.233 314.28H655.433C658.793 314.28 661.473 313.32 663.473 311.4C665.473 309.4 666.473 306.84 666.473 303.72C666.473 300.6 665.473 298.12 663.473 296.28C661.473 294.44 658.793 293.52 655.433 293.52H633.233V314.28ZM718.362 370.44C713.802 370.44 709.842 369.68 706.482 368.16C703.122 366.64 700.522 364.48 698.682 361.68C696.842 358.8 695.922 355.48 695.922 351.72C695.922 348.12 696.722 344.92 698.322 342.12C699.922 339.24 702.402 336.84 705.762 334.92C709.122 333 713.362 331.64 718.482 330.84L739.842 327.36V339.36L721.482 342.48C718.362 343.04 716.042 344.04 714.522 345.48C713.002 346.92 712.242 348.8 712.242 351.12C712.242 353.36 713.082 355.16 714.762 356.52C716.522 357.8 718.682 358.44 721.242 358.44C724.522 358.44 727.402 357.76 729.882 356.4C732.442 354.96 734.402 353 735.762 350.52C737.202 348.04 737.922 345.32 737.922 342.36V325.56C737.922 322.76 736.802 320.44 734.562 318.6C732.402 316.68 729.522 315.72 725.922 315.72C722.562 315.72 719.562 316.64 716.922 318.48C714.362 320.24 712.482 322.6 711.282 325.56L698.442 319.32C699.722 315.88 701.722 312.92 704.442 310.44C707.242 307.88 710.522 305.88 714.282 304.44C718.042 303 722.122 302.28 726.522 302.28C731.882 302.28 736.602 303.28 740.682 305.28C744.762 307.2 747.922 309.92 750.162 313.44C752.482 316.88 753.642 320.92 753.642 325.56V369H738.762V357.84L742.122 357.6C740.442 360.4 738.442 362.76 736.122 364.68C733.802 366.52 731.162 367.96 728.202 369C725.242 369.96 721.962 370.44 718.362 370.44ZM768.172 369V303.72H782.932V316.56L781.732 314.28C783.252 310.36 785.732 307.4 789.172 305.4C792.692 303.32 796.772 302.28 801.412 302.28C806.212 302.28 810.452 303.32 814.132 305.4C817.892 307.48 820.812 310.4 822.892 314.16C824.972 317.84 826.012 322.12 826.012 327V369H810.292V330.72C810.292 327.84 809.732 325.36 808.612 323.28C807.492 321.2 805.932 319.6 803.932 318.48C802.012 317.28 799.732 316.68 797.092 316.68C794.532 316.68 792.252 317.28 790.252 318.48C788.252 319.6 786.692 321.2 785.572 323.28C784.452 325.36 783.892 327.84 783.892 330.72V369H768.172ZM839.304 369V278.16H855.024V337.68L849.024 335.88L879.744 303.72H899.304L875.184 330L899.784 369H881.784L860.424 335.16L869.784 333.24L850.104 354.36L855.024 344.76V369H839.304Z" fill="black"/>
<defs>
<linearGradient id="paint0_linear_196_527" x1="600" y1="628" x2="600" y2="369" gradientUnits="userSpaceOnUse">
<stop stop-color="#5CABF3"/>
<stop offset="1" stop-color="#33DDCC" stop-opacity="0"/>
</linearGradient>
<linearGradient id="paint1_linear_196_527" x1="294" y1="245" x2="339.115" y2="289.231" gradientUnits="userSpaceOnUse">
<stop stop-color="#4980B4" stop-opacity="0"/>
<stop offset="1" stop-color="#4980B4"/>
</linearGradient>
<linearGradient id="paint2_linear_196_527" x1="432" y1="383" x2="386.885" y2="338.769" gradientUnits="userSpaceOnUse">
<stop stop-color="#279A8F" stop-opacity="0"/>
<stop offset="1" stop-color="#279A8F"/>
</linearGradient>
</defs>
</svg>
